<svg width="24" height="24" viewBox="0 0 24 24" fill="none" xmlns="http://www.w3.org/2000/svg">
<path d="M6.84031 1H12.649C10.0888 4.51911 7.52445 8.03538 4.96361 11.5539C6.63625 11.5542 8.3086 11.5536 9.98125 11.5545C7.4337 12.8177 4.88614 14.0809 2.33802 15.3433C2.16546 15.0742 1.95244 14.833 1.76255 14.5758C1.37206 14.0692 0.981288 13.5629 0.590802 13.0563C0.208698 12.5571 -0.00171903 11.9335 1.5179e-05 11.3082C-0.00200806 10.6971 0.198293 10.0874 0.563633 9.59332C2.65624 6.72916 4.74596 3.86302 6.84031 1ZM17.6907 1H24C19.8289 6.85361 15.6556 12.7058 11.4842 18.5591C13.4407 18.5597 15.3975 18.5585 17.3539 18.5597C14.3693 20.0405 11.3842 21.5206 8.39878 23C7.74874 22.1491 7.08541 21.3079 6.42988 20.461C6.27698 20.2722 6.14113 20.0695 6.03795 19.8502C5.69226 19.1318 5.67926 18.2706 5.99344 17.5397C6.16541 17.1191 6.46832 16.7719 6.7218 16.3989C10.3787 11.2663 14.0315 6.13087 17.6907 1Z" fill="#8D9DA8"/>
</svg>
