<svg width="24" height="24" viewBox="0 0 24 24" fill="none" xmlns="http://www.w3.org/2000/svg">
<path d="M14.2234 12.0716L14.0247 9.50382L14.4366 10.1169H15.8096L17.1235 8.51695L13.2489 9.12749L14.2234 12.0716Z" fill="#8D9DA8"/>
<path d="M8.78732 10.1169H10.0862L10.6011 9.46628L10.374 12.0716L11.3496 9.12749L7.47399 8.51695L8.78732 10.1169Z" fill="#8D9DA8"/>
<path d="M22.798 3.8874L19.6492 2.72288L17.5436 3.7738C18.7504 3.63118 19.4953 4.5685 19.4953 4.5685C19.3465 4.36032 19.0006 4.44089 19.0006 4.44089C19.4284 4.74465 19.4284 5.39172 19.4284 5.39172C19.4114 6.42612 18.5166 6.56925 18.5166 6.56925C19.2013 5.51282 18.4394 4.92081 18.4394 4.92081L18.7354 4.88928C18.3236 4.32929 17.1559 4.66508 17.1559 4.66508V5.9447C16.8939 5.7185 16.5325 4.67359 16.4187 4.32929L15.1589 4.95183L18.4651 2.283L12.2995 0L6.13182 2.283L9.43704 4.95183L8.17828 4.32929C8.06347 4.67359 7.70206 5.7185 7.44155 5.9447V4.66508C7.44155 4.66508 6.27237 4.32929 5.8605 4.88928L6.15653 4.92081C6.15653 4.92081 5.39458 5.51282 6.08085 6.56925C6.08085 6.56925 5.18607 6.42462 5.17011 5.39272C5.17011 5.39272 5.17011 4.74515 5.59691 4.44189C5.59691 4.44189 5.25249 4.36132 5.1037 4.5695C5.1037 4.5695 5.84712 3.63218 7.05543 3.7748L4.94977 2.72388L1.80054 3.8899V8.54398L6.08445 7.06668L1.80054 9.91267V14.1904L5.79924 10.7374L1.80054 16.049V16.7537L3.2328 17.9012L6.07158 14.6904L4.28821 18.7464L6.35474 20.4009L8.4393 16.2347L7.752 21.1475L12.2995 24L16.8455 21.1475L16.1582 16.2347L18.2443 20.4009L20.3093 18.7464L18.5048 14.7179L21.3657 17.9012L22.798 16.7537V16.049L18.7256 10.7354L22.798 14.1884V9.91117L18.5166 7.06518L22.8005 8.54248L22.798 3.8874ZM13.9943 18.5783H10.6021L9.70475 17.1585L12.2995 15.9209L14.885 17.1355L13.9943 18.5783ZM16.7338 12.7732L15.8534 13.733V15.7343L15.1059 16.602L12.7052 15.5181L12.6795 14.9351L14.4011 12.8788L12.2985 13.4047L10.1969 12.8788L11.9185 14.9336L11.8923 15.5166L9.49213 16.6005L8.74459 15.7343V13.7355L7.80811 12.8057L6.08497 9.26611L7.85136 6.03578L8.69105 5.42525C8.69105 5.42525 11.3682 6.33254 12.2995 6.33254C13.2308 6.33254 15.9064 5.42525 15.9064 5.42525L16.6864 5.97173L18.513 9.26761L16.7338 12.7732Z" fill="#8D9DA8"/>
</svg>
